<!DOCTYPE svg PUBLIC "-//W3C//DTD SVG 1.1//EN" "http://www.w3.org/Graphics/SVG/1.1/DTD/svg11.dtd">
<!-- Uploaded to: SVG Repo, www.svgrepo.com, Transformed by: SVG Repo Mixer Tools -->
<svg width="256px" height="256px" viewBox="-4.8 -4.8 57.60 57.60" xmlns="http://www.w3.org/2000/svg" fill="#000000">
<g id="SVGRepo_bgCarrier" stroke-width="0" transform="translate(0,0), scale(1)">
<path transform="translate(-4.8, -4.8), scale(3.5999999999999996)" fill="#e6e6e6" d="M9.166.33a2.25 2.25 0 00-2.332 0l-5.25 3.182A2.25 2.25 0 00.5 5.436v5.128a2.25 2.25 0 001.084 1.924l5.25 3.182a2.25 2.25 0 002.332 0l5.25-3.182a2.25 2.25 0 001.084-1.924V5.436a2.25 2.25 0 00-1.084-1.924L9.166.33z" strokewidth="0"/>
</g>
<g id="SVGRepo_tracerCarrier" stroke-linecap="round" stroke-linejoin="round" stroke="#f34949" stroke-width="0.288">
<defs>
<style>.a,.b,.c{fill:none;stroke:#000000;stroke-linecap:round;stroke-linejoin:round;}.b{stroke-width:1.7280000000000002;}.c{stroke-width:1.7280000000000002;}</style>
</defs>
<path class="a" d="M43.5,20.29a19.5,19.5,0,0,1-39,0"/>
<path class="b" d="M39.79,20.29a15.79,15.79,0,0,1-31.58,0"/>
<path class="c" d="M36.07,20.29a12.07,12.07,0,0,1-24.14,0"/>
<path class="c" d="M36.07,20.29a12.07,12.07,0,1,0-24.14,0"/>
<path class="c" d="M17.41,23.26a2.22,2.22,0,0,0,1.85.83h1.12a1.86,1.86,0,0,0,1.86-1.85h0a1.86,1.86,0,0,0-1.86-1.86H19.17a1.87,1.87,0,0,1-1.86-1.86h0a1.87,1.87,0,0,1,1.86-1.86h1.12a2,2,0,0,1,1.85.84"/>
<polyline class="c" points="26.79 16.57 26.79 24 30.5 24"/>
</g>
<g id="SVGRepo_iconCarrier">
<defs>
<style>.a,.b,.c{fill:none;stroke:#000000;stroke-linecap:round;stroke-linejoin:round;}.b{stroke-width:1.7280000000000002;}.c{stroke-width:1.7280000000000002;}</style>
</defs>
<path class="a" d="M43.5,20.29a19.5,19.5,0,0,1-39,0"/>
<path class="b" d="M39.79,20.29a15.79,15.79,0,0,1-31.58,0"/>
<path class="c" d="M36.07,20.29a12.07,12.07,0,0,1-24.14,0"/>
<path class="c" d="M36.07,20.29a12.07,12.07,0,1,0-24.14,0"/>
<path class="c" d="M17.41,23.26a2.22,2.22,0,0,0,1.85.83h1.12a1.86,1.86,0,0,0,1.86-1.85h0a1.86,1.86,0,0,0-1.86-1.86H19.17a1.87,1.87,0,0,1-1.86-1.86h0a1.87,1.87,0,0,1,1.86-1.86h1.12a2,2,0,0,1,1.85.84"/>
<polyline class="c" points="26.79 16.57 26.79 24 30.5 24"/>
</g>
</svg>